<?xml version="1.0" encoding="UTF-8" standalone="no"?>
<!-- Created with Inkscape (http://www.inkscape.org/) -->

<svg
   width="200mm"
   height="200mm"
   viewBox="0 0 200.00001 200"
   version="1.1"
   id="svg14"
   xmlns="http://www.w3.org/2000/svg"
   xmlns:svg="http://www.w3.org/2000/svg">
  <defs
     id="defs11">
    <linearGradient
       id="linearGradient7265">
      <stop
         style="stop-color:#000000;stop-opacity:1;"
         offset="0"
         id="stop7263" />
    </linearGradient>
  </defs>
  <g
     id="layer4"
     style="display:inline">
    <circle
       style="opacity:1;fill:#3771c8;fill-opacity:1;stroke:none;stroke-width:0.315227"
       id="path10759"
       cx="100"
       cy="100"
       r="100" />
  </g>
  <g
     id="layer2"
     style="display:inline;opacity:1"
     transform="translate(-39.675552,-75.577232)">
    <path
       id="path258"
       style="display:inline;fill:#000000;fill-opacity:1;stroke:none;stroke-width:0.267425px;stroke-linecap:butt;stroke-linejoin:miter;stroke-opacity:1"
       d="m 138.69972,106.60451 c -1.38557,-0.0512 -4.2655,0.1561 -5.13716,2.63343 l -4.63279,16.84239 c 0,0 -0.62262,4.86977 3.46077,6.40787 0,0 -2.29671,6.27563 3.26957,8.4646 0,0 4.63891,1.69987 8.12353,-2.16524 0,0 2.61327,2.83219 6.38514,1.84175 0,0 2.91468,2.24921 8.41241,2.41897 0,0 0.0658,6.45935 -1.14722,11.70988 0,0 -8.74042,9.91517 -10.72699,16.77107 0,0 -0.94897,0.0958 -7.13083,-6.92413 -6.18186,-7.01992 -21.46742,-6.28953 -21.46742,-6.28953 0,0 -35.389851,-0.0849 -35.257792,36.06653 -0.531042,34.11276 32.144802,38.89117 32.144802,38.89117 0,0 7.67052,2.44116 22.23637,-2.18902 14.56584,-4.63019 19.14921,-6.31951 19.14921,-6.31951 0,0 23.63192,4.28983 31.41204,-4.70927 h 0.0594 c 0,0 3.23683,-12.61352 6.36395,-20.99459 3.12712,-8.38108 2.14302,-22.92624 2.14302,-22.92624 0,0 -6.13726,-23.78503 -11.71866,-55.84156 0,0 2.04607,-6.86149 -45.18329,-13.62552 0,0 -0.29624,-0.046 -0.75809,-0.0631 z" />
  </g>
  <g
     id="layer3"
     style="display:inline;opacity:1"
     transform="translate(-39.675552,-75.577232)">
    <g
       id="g7535"
       style="display:inline;fill:#ffd7bc;fill-opacity:1;stroke:none"
       transform="translate(43.03528,30.887169)">
      <path
         id="path2444"
         style="fill:#ffd7bc;fill-opacity:1;stroke:none;stroke-width:0.999999px;stroke-linecap:butt;stroke-linejoin:miter;stroke-opacity:1"
         d="m 360.66406,295.08398 c 0,0 -8.64415,-0.47321 -13.05273,21.78125 0,0 -4.63007,24.88697 -10.32031,44.83789 0,0 -5.02838,9.03643 13.22851,13.04688 0,0 2.56787,1.70659 3.36328,-3.93164 0,0 -0.1308,-9.4099 14.20313,-38.53125 0,0 -8.9072,-14.97895 5.79492,-4.90234 0,0 1.53304,0.8543 0.37305,7.89453 0,0 -1.77377,15.53914 -11.76953,45.00781 0,0 -3.22774,6.88422 4.52343,9.47656 0,0 10.64048,4.2315 12.70508,-6.17773 0,0 3.12568,-21.80522 13.19922,-37.42774 0,0 -2.14426,-13.8701 7.44531,-4.39453 0,0 1.34219,0.22745 -4.33398,21.33008 0,0 -1.25241,5.34908 -7.34766,27.15039 0,0 -3.14762,5.27236 5.44336,9.72461 0,0 9.01343,4.14111 10.04883,-2.70898 0,0 1.77385,-15.33457 9.30078,-37.67579 0,0 -1.07889,-8.45323 4.76563,-7.51367 0,0 7.08297,-0.39666 2.43359,9.08789 0,0 -2.64366,22.46225 -7.35352,40.03516 0,0 -2.41874,7.40261 9.82032,9.69531 0,0 27.62985,5.97376 29.72851,-6.17383 0,0 -0.32565,-1.04323 3.61719,-11.86523 0,0 1.22639,-3.42566 -0.66602,-4.88867 0,0 -2.46638,-2.60189 -3.58984,2.67187 0,0 -0.62566,6.05007 -7.18359,8.95313 0,0 -6.07324,1.53588 -3.25586,-5.28125 0,0 1.44931,-4.60309 1.84375,-11.02735 0,0 1.04714,-9.61692 7.92773,-19.63867 0,0 1.29013,-4.9436 4.7832,-3.88086 0,0 3.54316,0.21272 1.21289,7.71289 0,0 -1.04914,3.72246 2.45508,7.75586 0,0 7.26954,10.13774 14.30664,10.61914 0,0 10.64952,2.09123 14.24805,-6.5332 0,0 1.06961,-5.77068 6.54883,-7.26953 0,0 4.22961,-1.56823 2.75586,5.37109 0,0 -1.47718,27.19428 -25.40821,22.79102 0,0 -8.05298,-1.96321 -8.04296,1.37109 0,0 0.30104,18.29319 -13.70313,20.31641 0,0 4.77099,30.96988 -5.30859,58.76562 0,0 -70.26675,52.33418 -38.8086,154.88282 0,0 7.85891,25.01743 -6.26367,4.63867 0,0 -24.60891,-47.56276 -12.26367,-98.53907 0,0 -8.99757,-4.83955 -20.10742,-13.91601 0,0 -23.87947,-20.93486 -46.78711,-24.57617 0,0 -50.0806,-9.74516 -93.23438,7.91992 -31.96916,13.08664 -60.13775,41.21042 -61.32226,99.51172 0,0 -8.89043,111.65087 101.32031,130.85937 0,0 51.85413,10.88842 102.68359,-10.74023 l -37.98632,-11.7207 c 0,0 -8.51741,-3.92621 1.46875,-3.4961 l 57.37695,3.11914 c 0,0 6.53982,0.32449 10.75195,-3.66601 4.2121,-3.99058 10.81641,-2.5918 10.81641,-2.5918 0,0 126.71919,32.10179 128.88086,-34.23047 0,0 0.97754,-62.68543 -0.71289,-77.09961 0,0 -0.97012,-23.17866 4.15039,-0.61133 0,0 3.65715,26.61285 6.58593,27.11133 0,0 15.58632,-67.1359 7.4668,-102.13867 0,0 -26.88726,-113.86171 -32.30469,-168.41797 0,0 -1.74568,-21.89387 -14.92187,-26.00586 0,0 -62.61279,-19.62929 -151.5293,-35.86719 z"
         transform="scale(0.26458333)" />
      <path
         style="fill:#ffd7bc;fill-opacity:1;stroke:none;stroke-width:0.264583px;stroke-linecap:butt;stroke-linejoin:miter;stroke-opacity:1"
         d="m 91.615111,103.12109 c 0,0 -0.434983,1.87784 -0.194847,3.10681 0,0 0.103835,1.65038 3.342488,1.78393 0,0 1.396921,-0.0274 2.359349,-1.25251 0,0 -4.509833,-1.28332 -5.50699,-3.63823 z"
         id="path7033" />
    </g>
  </g>
</svg>
